M48
;GenerationSoftware,Autodesk,EAGLE,9.6.2*%
;CreationDate,2023-11-16T11:08:23Z*%
FMAT,2
ICI,OFF
METRIC,TZ,000.000
T5C0.800
T4C0.813
T3C0.900
T2C1.016
T1C1.321
%
G90
M71
T1
X85090Y40665
X85090Y45695
X85090Y59665
X85090Y54635
X85090Y30455
X85090Y25425
T2
X29210Y29210
X31750Y29210
X34290Y29210
X36830Y29210
X39370Y29210
X41910Y29210
X39370Y66040
X39370Y63500
X33020Y63500
X33020Y66040
X39370Y21590
X34290Y21590
X36830Y21590
T3
X61920Y51270
X73920Y63270
X59920Y57270
X73920Y51270
X61920Y63270
X73920Y34060
X61920Y22060
X59920Y28060
X73920Y22060
X61920Y34060
T4
X33020Y49530
X39370Y59690
X39370Y49530
X46990Y55880
X30480Y39370
X46990Y36830
X46990Y26670
X53340Y64770
X53340Y62230
X53340Y35560
X53340Y33020
X46990Y50800
X45085Y49530
X46990Y48260
X46990Y21590
X45085Y20320
X46990Y19050
X53340Y17780
X53340Y46990
X53340Y27940
X53340Y57150
X40640Y44450
X30480Y44450
X40640Y39370
X46990Y66040
X33020Y59690
T5
X24130Y43180
X24130Y45720
X24130Y48260
X24130Y50800
X24130Y53340
X24130Y55880
X24130Y58420
X24130Y60960
X24130Y63500
X24130Y66040
X24130Y68580
X8890Y20320
X8890Y22860
X8890Y25400
X8890Y27940
X8890Y30480
X8890Y33020
X24130Y20320
X8890Y38100
X8890Y40640
X8890Y43180
X8890Y45720
X8890Y48260
X8890Y50800
X8890Y53340
X8890Y55880
X8890Y58420
X8890Y60960
X8890Y35560
X8890Y66040
X8890Y68580
X24130Y22860
X24130Y25400
X24130Y27940
X24130Y30480
X24130Y33020
X24130Y35560
X24130Y38100
X24130Y40640
X8890Y63500
M30