G04 EAGLE Gerber RS-274X export*
G75*
%MOMM*%
%FSLAX34Y34*%
%LPD*%
%INTop Copper*%
%IPPOS*%
%AMOC8*
5,1,8,0,0,1.08239X$1,22.5*%
G01*
%ADD10R,1.308000X1.308000*%
%ADD11C,1.308000*%
%ADD12C,1.320800*%
%ADD13P,1.429621X8X292.500000*%
%ADD14P,1.429621X8X112.500000*%
%ADD15P,1.429621X8X202.500000*%
%ADD16C,1.408000*%
%ADD17C,1.524000*%
%ADD18C,1.981200*%
%ADD19C,0.508000*%


D10*
X127000Y558800D03*
D11*
X127000Y533400D03*
X127000Y508000D03*
X127000Y482600D03*
X127000Y457200D03*
X127000Y431800D03*
X127000Y406400D03*
X127000Y381000D03*
X127000Y355600D03*
X127000Y330200D03*
X127000Y304800D03*
X127000Y279400D03*
X127000Y254000D03*
X127000Y228600D03*
X127000Y203200D03*
X279400Y203200D03*
X279400Y228600D03*
X279400Y254000D03*
X279400Y279400D03*
X279400Y304800D03*
X279400Y330200D03*
X279400Y355600D03*
X279400Y381000D03*
X279400Y406400D03*
X279400Y431800D03*
X279400Y457200D03*
X279400Y482600D03*
X279400Y508000D03*
X279400Y533400D03*
X279400Y558800D03*
D12*
X508000Y565404D02*
X508000Y552196D01*
X508000Y463804D02*
X508000Y450596D01*
X508000Y349504D02*
X508000Y336296D01*
X508000Y247904D02*
X508000Y234696D01*
D13*
X571500Y558800D03*
X571500Y533400D03*
X571500Y342900D03*
X571500Y317500D03*
D14*
X508000Y419100D03*
X488950Y406400D03*
X508000Y393700D03*
X508000Y203200D03*
X488950Y190500D03*
X508000Y177800D03*
X571500Y177800D03*
X571500Y279400D03*
X571500Y393700D03*
X571500Y495300D03*
D15*
X444500Y355600D03*
X342900Y355600D03*
X444500Y304800D03*
X342900Y304800D03*
D14*
X368300Y393700D03*
X368300Y495300D03*
X419100Y393700D03*
X419100Y495300D03*
D16*
X777300Y421400D03*
X657300Y541400D03*
X637300Y481400D03*
X777300Y541400D03*
X657300Y421400D03*
X777300Y192800D03*
X657300Y312800D03*
X637300Y252800D03*
X777300Y312800D03*
X657300Y192800D03*
D17*
X330200Y220980D02*
X330200Y236220D01*
X355600Y236220D02*
X355600Y220980D01*
X381000Y220980D02*
X381000Y236220D01*
X406400Y236220D02*
X406400Y220980D01*
X431800Y220980D02*
X431800Y236220D01*
X457200Y236220D02*
X457200Y220980D01*
X426720Y558800D02*
X411480Y558800D01*
X411480Y533400D02*
X426720Y533400D01*
X375920Y533400D02*
X360680Y533400D01*
X360680Y558800D02*
X375920Y558800D01*
D18*
X866394Y507746D02*
X886206Y507746D01*
X886206Y457454D02*
X866394Y457454D01*
X866394Y279146D02*
X886206Y279146D01*
X886206Y228854D02*
X866394Y228854D01*
X866394Y343154D02*
X886206Y343154D01*
X886206Y393446D02*
X866394Y393446D01*
D19*
X571500Y317500D02*
X571500Y279400D01*
X546100Y203200D02*
X571500Y177800D01*
X546100Y203200D02*
X508000Y203200D01*
X508000Y241300D01*
X641350Y177800D02*
X654050Y190500D01*
X641350Y177800D02*
X571500Y177800D01*
X654050Y190500D02*
X657300Y192800D01*
X488950Y400050D02*
X488950Y406400D01*
X488950Y400050D02*
X444500Y355600D01*
X539750Y425450D02*
X508000Y457200D01*
X539750Y425450D02*
X654050Y425450D01*
X657300Y421400D01*
X571500Y495300D02*
X571500Y533400D01*
X488950Y273050D02*
X488950Y190500D01*
X457200Y304800D02*
X444500Y304800D01*
X457200Y304800D02*
X488950Y273050D01*
X533400Y393700D02*
X508000Y419100D01*
X533400Y393700D02*
X571500Y393700D01*
X292100Y495300D02*
X279400Y482600D01*
X292100Y495300D02*
X368300Y495300D01*
X368300Y533400D01*
X419100Y457200D02*
X279400Y457200D01*
X419100Y457200D02*
X419100Y495300D01*
X419100Y533400D01*
X292100Y406400D02*
X342900Y355600D01*
X292100Y406400D02*
X279400Y406400D01*
X279400Y381000D02*
X342900Y317500D01*
X342900Y304800D01*
X330200Y279400D02*
X279400Y330200D01*
X431800Y241300D02*
X431800Y228600D01*
X393700Y279400D02*
X330200Y279400D01*
X393700Y279400D02*
X431800Y241300D01*
X508000Y342900D02*
X571500Y342900D01*
X628650Y342900D02*
X654050Y317500D01*
X628650Y342900D02*
X571500Y342900D01*
X654050Y317500D02*
X657300Y312800D01*
X419100Y558800D02*
X368300Y558800D01*
X508000Y558800D02*
X571500Y558800D01*
X641350Y558800D02*
X654050Y546100D01*
X641350Y558800D02*
X571500Y558800D01*
X654050Y546100D02*
X657300Y541400D01*
X508000Y558800D02*
X457200Y558800D01*
X419100Y558800D01*
X127000Y279400D02*
X114300Y279400D01*
X101600Y292100D01*
X101600Y596900D01*
X114300Y609600D01*
X317500Y609600D01*
X368300Y558800D01*
X457200Y558800D02*
X469900Y546100D01*
X469900Y457200D01*
X444500Y431800D02*
X406400Y431800D01*
X393700Y419100D01*
X444500Y431800D02*
X469900Y457200D01*
X508000Y342900D02*
X495300Y330200D01*
X431800Y330200D01*
X393700Y368300D01*
X393700Y419100D01*
X285750Y152400D02*
X254000Y152400D01*
X285750Y152400D02*
X355600Y222250D01*
X355600Y228600D01*
X139700Y381000D02*
X127000Y381000D01*
X139700Y381000D02*
X241300Y279400D01*
X241300Y165100D01*
X254000Y152400D01*
X228600Y254000D02*
X127000Y355600D01*
X301625Y142875D02*
X381000Y222250D01*
X381000Y228600D01*
X301625Y142875D02*
X298450Y139700D01*
X241300Y139700D01*
X228600Y152400D01*
X228600Y254000D01*
X279400Y304800D02*
X317500Y266700D01*
X381000Y266700D02*
X406400Y241300D01*
X406400Y228600D01*
X381000Y266700D02*
X317500Y266700D01*
M02*
