G04 EAGLE Gerber RS-274X export*
G75*
%MOMM*%
%FSLAX34Y34*%
%LPD*%
%IN*%
%IPPOS*%
%AMOC8*
5,1,8,0,0,1.08239X$1,22.5*%
G01*
%ADD10C,0.254000*%


D10*
X63500Y101600D02*
X961900Y101600D01*
X961900Y647600D01*
X63500Y647600D01*
X63500Y101600D01*
X126612Y575310D02*
X125839Y575378D01*
X125074Y575512D01*
X124324Y575713D01*
X123595Y575979D01*
X122891Y576307D01*
X122219Y576695D01*
X121583Y577140D01*
X120988Y577639D01*
X120439Y578188D01*
X119940Y578783D01*
X119495Y579419D01*
X119107Y580091D01*
X118779Y580795D01*
X118513Y581524D01*
X118312Y582274D01*
X118178Y583039D01*
X118110Y583812D01*
X118110Y584588D01*
X118178Y585361D01*
X118312Y586126D01*
X118513Y586876D01*
X118779Y587605D01*
X119107Y588309D01*
X119495Y588981D01*
X119940Y589617D01*
X120439Y590212D01*
X120988Y590761D01*
X121583Y591260D01*
X122219Y591705D01*
X122891Y592093D01*
X123595Y592421D01*
X124324Y592687D01*
X125074Y592888D01*
X125839Y593022D01*
X126612Y593090D01*
X127388Y593090D01*
X128161Y593022D01*
X128926Y592888D01*
X129676Y592687D01*
X130405Y592421D01*
X131109Y592093D01*
X131781Y591705D01*
X132417Y591260D01*
X133012Y590761D01*
X133561Y590212D01*
X134060Y589617D01*
X134505Y588981D01*
X134893Y588309D01*
X135221Y587605D01*
X135487Y586876D01*
X135688Y586126D01*
X135822Y585361D01*
X135890Y584588D01*
X135890Y583812D01*
X135822Y583039D01*
X135688Y582274D01*
X135487Y581524D01*
X135221Y580795D01*
X134893Y580091D01*
X134505Y579419D01*
X134060Y578783D01*
X133561Y578188D01*
X133012Y577639D01*
X132417Y577140D01*
X131781Y576695D01*
X131109Y576307D01*
X130405Y575979D01*
X129676Y575713D01*
X128926Y575512D01*
X128161Y575378D01*
X127388Y575310D01*
X126612Y575310D01*
X279012Y575310D02*
X278239Y575378D01*
X277474Y575512D01*
X276724Y575713D01*
X275995Y575979D01*
X275291Y576307D01*
X274619Y576695D01*
X273983Y577140D01*
X273388Y577639D01*
X272839Y578188D01*
X272340Y578783D01*
X271895Y579419D01*
X271507Y580091D01*
X271179Y580795D01*
X270913Y581524D01*
X270712Y582274D01*
X270578Y583039D01*
X270510Y583812D01*
X270510Y584588D01*
X270578Y585361D01*
X270712Y586126D01*
X270913Y586876D01*
X271179Y587605D01*
X271507Y588309D01*
X271895Y588981D01*
X272340Y589617D01*
X272839Y590212D01*
X273388Y590761D01*
X273983Y591260D01*
X274619Y591705D01*
X275291Y592093D01*
X275995Y592421D01*
X276724Y592687D01*
X277474Y592888D01*
X278239Y593022D01*
X279012Y593090D01*
X279788Y593090D01*
X280561Y593022D01*
X281326Y592888D01*
X282076Y592687D01*
X282805Y592421D01*
X283509Y592093D01*
X284181Y591705D01*
X284817Y591260D01*
X285412Y590761D01*
X285961Y590212D01*
X286460Y589617D01*
X286905Y588981D01*
X287293Y588309D01*
X287621Y587605D01*
X287887Y586876D01*
X288088Y586126D01*
X288222Y585361D01*
X288290Y584588D01*
X288290Y583812D01*
X288222Y583039D01*
X288088Y582274D01*
X287887Y581524D01*
X287621Y580795D01*
X287293Y580091D01*
X286905Y579419D01*
X286460Y578783D01*
X285961Y578188D01*
X285412Y577639D01*
X284817Y577140D01*
X284181Y576695D01*
X283509Y576307D01*
X282805Y575979D01*
X282076Y575713D01*
X281326Y575512D01*
X280561Y575378D01*
X279788Y575310D01*
X279012Y575310D01*
X279012Y168910D02*
X278239Y168978D01*
X277474Y169112D01*
X276724Y169313D01*
X275995Y169579D01*
X275291Y169907D01*
X274619Y170295D01*
X273983Y170740D01*
X273388Y171239D01*
X272839Y171788D01*
X272340Y172383D01*
X271895Y173019D01*
X271507Y173691D01*
X271179Y174395D01*
X270913Y175124D01*
X270712Y175874D01*
X270578Y176639D01*
X270510Y177412D01*
X270510Y178188D01*
X270578Y178961D01*
X270712Y179726D01*
X270913Y180476D01*
X271179Y181205D01*
X271507Y181909D01*
X271895Y182581D01*
X272340Y183217D01*
X272839Y183812D01*
X273388Y184361D01*
X273983Y184860D01*
X274619Y185305D01*
X275291Y185693D01*
X275995Y186021D01*
X276724Y186287D01*
X277474Y186488D01*
X278239Y186622D01*
X279012Y186690D01*
X279788Y186690D01*
X280561Y186622D01*
X281326Y186488D01*
X282076Y186287D01*
X282805Y186021D01*
X283509Y185693D01*
X284181Y185305D01*
X284817Y184860D01*
X285412Y184361D01*
X285961Y183812D01*
X286460Y183217D01*
X286905Y182581D01*
X287293Y181909D01*
X287621Y181205D01*
X287887Y180476D01*
X288088Y179726D01*
X288222Y178961D01*
X288290Y178188D01*
X288290Y177412D01*
X288222Y176639D01*
X288088Y175874D01*
X287887Y175124D01*
X287621Y174395D01*
X287293Y173691D01*
X286905Y173019D01*
X286460Y172383D01*
X285961Y171788D01*
X285412Y171239D01*
X284817Y170740D01*
X284181Y170295D01*
X283509Y169907D01*
X282805Y169579D01*
X282076Y169313D01*
X281326Y169112D01*
X280561Y168978D01*
X279788Y168910D01*
X279012Y168910D01*
X126612Y168910D02*
X125839Y168978D01*
X125074Y169112D01*
X124324Y169313D01*
X123595Y169579D01*
X122891Y169907D01*
X122219Y170295D01*
X121583Y170740D01*
X120988Y171239D01*
X120439Y171788D01*
X119940Y172383D01*
X119495Y173019D01*
X119107Y173691D01*
X118779Y174395D01*
X118513Y175124D01*
X118312Y175874D01*
X118178Y176639D01*
X118110Y177412D01*
X118110Y178188D01*
X118178Y178961D01*
X118312Y179726D01*
X118513Y180476D01*
X118779Y181205D01*
X119107Y181909D01*
X119495Y182581D01*
X119940Y183217D01*
X120439Y183812D01*
X120988Y184361D01*
X121583Y184860D01*
X122219Y185305D01*
X122891Y185693D01*
X123595Y186021D01*
X124324Y186287D01*
X125074Y186488D01*
X125839Y186622D01*
X126612Y186690D01*
X127388Y186690D01*
X128161Y186622D01*
X128926Y186488D01*
X129676Y186287D01*
X130405Y186021D01*
X131109Y185693D01*
X131781Y185305D01*
X132417Y184860D01*
X133012Y184361D01*
X133561Y183812D01*
X134060Y183217D01*
X134505Y182581D01*
X134893Y181909D01*
X135221Y181205D01*
X135487Y180476D01*
X135688Y179726D01*
X135822Y178961D01*
X135890Y178188D01*
X135890Y177412D01*
X135822Y176639D01*
X135688Y175874D01*
X135487Y175124D01*
X135221Y174395D01*
X134893Y173691D01*
X134505Y173019D01*
X134060Y172383D01*
X133561Y171788D01*
X133012Y171239D01*
X132417Y170740D01*
X131781Y170295D01*
X131109Y169907D01*
X130405Y169579D01*
X129676Y169313D01*
X128926Y169112D01*
X128161Y168978D01*
X127388Y168910D01*
X126612Y168910D01*
M02*
