G04 EAGLE Gerber RS-274X export*
G75*
%MOMM*%
%FSLAX34Y34*%
%LPD*%
%INSilkscreen Bottom*%
%IPPOS*%
%AMOC8*
5,1,8,0,0,1.08239X$1,22.5*%
G01*
%ADD10C,0.152400*%
%ADD11C,0.127000*%
%ADD12R,3.810000X0.762000*%


D10*
X840740Y317500D02*
X854710Y317500D01*
X915670Y317500D02*
X915670Y419100D01*
X897890Y419100D01*
X840740Y419100D02*
X840740Y317500D01*
X906780Y317500D02*
X908050Y312420D01*
X906780Y317500D02*
X915670Y317500D01*
X908050Y312420D02*
X896620Y312420D01*
X897890Y317500D01*
X906780Y317500D01*
X897890Y317500D02*
X897890Y419100D01*
X854710Y419100D01*
X854710Y317500D01*
X897890Y317500D01*
X854710Y419100D02*
X840740Y419100D01*
X901700Y393446D02*
X901702Y393588D01*
X901708Y393731D01*
X901718Y393873D01*
X901732Y394015D01*
X901750Y394156D01*
X901772Y394297D01*
X901798Y394437D01*
X901827Y394576D01*
X901861Y394715D01*
X901899Y394852D01*
X901940Y394989D01*
X901985Y395124D01*
X902034Y395258D01*
X902087Y395390D01*
X902143Y395521D01*
X902203Y395650D01*
X902267Y395778D01*
X902334Y395903D01*
X902405Y396027D01*
X902479Y396149D01*
X902556Y396268D01*
X902637Y396386D01*
X902721Y396501D01*
X902808Y396613D01*
X902899Y396723D01*
X902992Y396831D01*
X903089Y396936D01*
X903188Y397038D01*
X903290Y397137D01*
X903395Y397234D01*
X903503Y397327D01*
X903613Y397418D01*
X903725Y397505D01*
X903840Y397589D01*
X903958Y397670D01*
X904077Y397747D01*
X904199Y397821D01*
X904323Y397892D01*
X904448Y397959D01*
X904576Y398023D01*
X904705Y398083D01*
X904836Y398139D01*
X904968Y398192D01*
X905102Y398241D01*
X905237Y398286D01*
X905374Y398327D01*
X905511Y398365D01*
X905650Y398399D01*
X905789Y398428D01*
X905929Y398454D01*
X906070Y398476D01*
X906211Y398494D01*
X906353Y398508D01*
X906495Y398518D01*
X906638Y398524D01*
X906780Y398526D01*
X906922Y398524D01*
X907065Y398518D01*
X907207Y398508D01*
X907349Y398494D01*
X907490Y398476D01*
X907631Y398454D01*
X907771Y398428D01*
X907910Y398399D01*
X908049Y398365D01*
X908186Y398327D01*
X908323Y398286D01*
X908458Y398241D01*
X908592Y398192D01*
X908724Y398139D01*
X908855Y398083D01*
X908984Y398023D01*
X909112Y397959D01*
X909237Y397892D01*
X909361Y397821D01*
X909483Y397747D01*
X909602Y397670D01*
X909720Y397589D01*
X909835Y397505D01*
X909947Y397418D01*
X910057Y397327D01*
X910165Y397234D01*
X910270Y397137D01*
X910372Y397038D01*
X910471Y396936D01*
X910568Y396831D01*
X910661Y396723D01*
X910752Y396613D01*
X910839Y396501D01*
X910923Y396386D01*
X911004Y396268D01*
X911081Y396149D01*
X911155Y396027D01*
X911226Y395903D01*
X911293Y395778D01*
X911357Y395650D01*
X911417Y395521D01*
X911473Y395390D01*
X911526Y395258D01*
X911575Y395124D01*
X911620Y394989D01*
X911661Y394852D01*
X911699Y394715D01*
X911733Y394576D01*
X911762Y394437D01*
X911788Y394297D01*
X911810Y394156D01*
X911828Y394015D01*
X911842Y393873D01*
X911852Y393731D01*
X911858Y393588D01*
X911860Y393446D01*
X911858Y393304D01*
X911852Y393161D01*
X911842Y393019D01*
X911828Y392877D01*
X911810Y392736D01*
X911788Y392595D01*
X911762Y392455D01*
X911733Y392316D01*
X911699Y392177D01*
X911661Y392040D01*
X911620Y391903D01*
X911575Y391768D01*
X911526Y391634D01*
X911473Y391502D01*
X911417Y391371D01*
X911357Y391242D01*
X911293Y391114D01*
X911226Y390989D01*
X911155Y390865D01*
X911081Y390743D01*
X911004Y390624D01*
X910923Y390506D01*
X910839Y390391D01*
X910752Y390279D01*
X910661Y390169D01*
X910568Y390061D01*
X910471Y389956D01*
X910372Y389854D01*
X910270Y389755D01*
X910165Y389658D01*
X910057Y389565D01*
X909947Y389474D01*
X909835Y389387D01*
X909720Y389303D01*
X909602Y389222D01*
X909483Y389145D01*
X909361Y389071D01*
X909237Y389000D01*
X909112Y388933D01*
X908984Y388869D01*
X908855Y388809D01*
X908724Y388753D01*
X908592Y388700D01*
X908458Y388651D01*
X908323Y388606D01*
X908186Y388565D01*
X908049Y388527D01*
X907910Y388493D01*
X907771Y388464D01*
X907631Y388438D01*
X907490Y388416D01*
X907349Y388398D01*
X907207Y388384D01*
X907065Y388374D01*
X906922Y388368D01*
X906780Y388366D01*
X906638Y388368D01*
X906495Y388374D01*
X906353Y388384D01*
X906211Y388398D01*
X906070Y388416D01*
X905929Y388438D01*
X905789Y388464D01*
X905650Y388493D01*
X905511Y388527D01*
X905374Y388565D01*
X905237Y388606D01*
X905102Y388651D01*
X904968Y388700D01*
X904836Y388753D01*
X904705Y388809D01*
X904576Y388869D01*
X904448Y388933D01*
X904323Y389000D01*
X904199Y389071D01*
X904077Y389145D01*
X903958Y389222D01*
X903840Y389303D01*
X903725Y389387D01*
X903613Y389474D01*
X903503Y389565D01*
X903395Y389658D01*
X903290Y389755D01*
X903188Y389854D01*
X903089Y389956D01*
X902992Y390061D01*
X902899Y390169D01*
X902808Y390279D01*
X902721Y390391D01*
X902637Y390506D01*
X902556Y390624D01*
X902479Y390743D01*
X902405Y390865D01*
X902334Y390989D01*
X902267Y391114D01*
X902203Y391242D01*
X902143Y391371D01*
X902087Y391502D01*
X902034Y391634D01*
X901985Y391768D01*
X901940Y391903D01*
X901899Y392040D01*
X901861Y392177D01*
X901827Y392316D01*
X901798Y392455D01*
X901772Y392595D01*
X901750Y392736D01*
X901732Y392877D01*
X901718Y393019D01*
X901708Y393161D01*
X901702Y393304D01*
X901700Y393446D01*
X901700Y343154D02*
X901702Y343296D01*
X901708Y343439D01*
X901718Y343581D01*
X901732Y343723D01*
X901750Y343864D01*
X901772Y344005D01*
X901798Y344145D01*
X901827Y344284D01*
X901861Y344423D01*
X901899Y344560D01*
X901940Y344697D01*
X901985Y344832D01*
X902034Y344966D01*
X902087Y345098D01*
X902143Y345229D01*
X902203Y345358D01*
X902267Y345486D01*
X902334Y345611D01*
X902405Y345735D01*
X902479Y345857D01*
X902556Y345976D01*
X902637Y346094D01*
X902721Y346209D01*
X902808Y346321D01*
X902899Y346431D01*
X902992Y346539D01*
X903089Y346644D01*
X903188Y346746D01*
X903290Y346845D01*
X903395Y346942D01*
X903503Y347035D01*
X903613Y347126D01*
X903725Y347213D01*
X903840Y347297D01*
X903958Y347378D01*
X904077Y347455D01*
X904199Y347529D01*
X904323Y347600D01*
X904448Y347667D01*
X904576Y347731D01*
X904705Y347791D01*
X904836Y347847D01*
X904968Y347900D01*
X905102Y347949D01*
X905237Y347994D01*
X905374Y348035D01*
X905511Y348073D01*
X905650Y348107D01*
X905789Y348136D01*
X905929Y348162D01*
X906070Y348184D01*
X906211Y348202D01*
X906353Y348216D01*
X906495Y348226D01*
X906638Y348232D01*
X906780Y348234D01*
X906922Y348232D01*
X907065Y348226D01*
X907207Y348216D01*
X907349Y348202D01*
X907490Y348184D01*
X907631Y348162D01*
X907771Y348136D01*
X907910Y348107D01*
X908049Y348073D01*
X908186Y348035D01*
X908323Y347994D01*
X908458Y347949D01*
X908592Y347900D01*
X908724Y347847D01*
X908855Y347791D01*
X908984Y347731D01*
X909112Y347667D01*
X909237Y347600D01*
X909361Y347529D01*
X909483Y347455D01*
X909602Y347378D01*
X909720Y347297D01*
X909835Y347213D01*
X909947Y347126D01*
X910057Y347035D01*
X910165Y346942D01*
X910270Y346845D01*
X910372Y346746D01*
X910471Y346644D01*
X910568Y346539D01*
X910661Y346431D01*
X910752Y346321D01*
X910839Y346209D01*
X910923Y346094D01*
X911004Y345976D01*
X911081Y345857D01*
X911155Y345735D01*
X911226Y345611D01*
X911293Y345486D01*
X911357Y345358D01*
X911417Y345229D01*
X911473Y345098D01*
X911526Y344966D01*
X911575Y344832D01*
X911620Y344697D01*
X911661Y344560D01*
X911699Y344423D01*
X911733Y344284D01*
X911762Y344145D01*
X911788Y344005D01*
X911810Y343864D01*
X911828Y343723D01*
X911842Y343581D01*
X911852Y343439D01*
X911858Y343296D01*
X911860Y343154D01*
X911858Y343012D01*
X911852Y342869D01*
X911842Y342727D01*
X911828Y342585D01*
X911810Y342444D01*
X911788Y342303D01*
X911762Y342163D01*
X911733Y342024D01*
X911699Y341885D01*
X911661Y341748D01*
X911620Y341611D01*
X911575Y341476D01*
X911526Y341342D01*
X911473Y341210D01*
X911417Y341079D01*
X911357Y340950D01*
X911293Y340822D01*
X911226Y340697D01*
X911155Y340573D01*
X911081Y340451D01*
X911004Y340332D01*
X910923Y340214D01*
X910839Y340099D01*
X910752Y339987D01*
X910661Y339877D01*
X910568Y339769D01*
X910471Y339664D01*
X910372Y339562D01*
X910270Y339463D01*
X910165Y339366D01*
X910057Y339273D01*
X909947Y339182D01*
X909835Y339095D01*
X909720Y339011D01*
X909602Y338930D01*
X909483Y338853D01*
X909361Y338779D01*
X909237Y338708D01*
X909112Y338641D01*
X908984Y338577D01*
X908855Y338517D01*
X908724Y338461D01*
X908592Y338408D01*
X908458Y338359D01*
X908323Y338314D01*
X908186Y338273D01*
X908049Y338235D01*
X907910Y338201D01*
X907771Y338172D01*
X907631Y338146D01*
X907490Y338124D01*
X907349Y338106D01*
X907207Y338092D01*
X907065Y338082D01*
X906922Y338076D01*
X906780Y338074D01*
X906638Y338076D01*
X906495Y338082D01*
X906353Y338092D01*
X906211Y338106D01*
X906070Y338124D01*
X905929Y338146D01*
X905789Y338172D01*
X905650Y338201D01*
X905511Y338235D01*
X905374Y338273D01*
X905237Y338314D01*
X905102Y338359D01*
X904968Y338408D01*
X904836Y338461D01*
X904705Y338517D01*
X904576Y338577D01*
X904448Y338641D01*
X904323Y338708D01*
X904199Y338779D01*
X904077Y338853D01*
X903958Y338930D01*
X903840Y339011D01*
X903725Y339095D01*
X903613Y339182D01*
X903503Y339273D01*
X903395Y339366D01*
X903290Y339463D01*
X903188Y339562D01*
X903089Y339664D01*
X902992Y339769D01*
X902899Y339877D01*
X902808Y339987D01*
X902721Y340099D01*
X902637Y340214D01*
X902556Y340332D01*
X902479Y340451D01*
X902405Y340573D01*
X902334Y340697D01*
X902267Y340822D01*
X902203Y340950D01*
X902143Y341079D01*
X902087Y341210D01*
X902034Y341342D01*
X901985Y341476D01*
X901940Y341611D01*
X901899Y341748D01*
X901861Y341885D01*
X901827Y342024D01*
X901798Y342163D01*
X901772Y342303D01*
X901750Y342444D01*
X901732Y342585D01*
X901718Y342727D01*
X901708Y342869D01*
X901702Y343012D01*
X901700Y343154D01*
D11*
X910971Y326884D02*
X909052Y324485D01*
X910971Y326884D02*
X902335Y326884D01*
X902335Y324485D02*
X902335Y329283D01*
X910971Y377924D02*
X910969Y378016D01*
X910963Y378107D01*
X910954Y378198D01*
X910940Y378289D01*
X910923Y378379D01*
X910901Y378468D01*
X910876Y378556D01*
X910848Y378643D01*
X910815Y378729D01*
X910779Y378813D01*
X910740Y378896D01*
X910697Y378977D01*
X910650Y379056D01*
X910601Y379133D01*
X910548Y379208D01*
X910492Y379280D01*
X910433Y379350D01*
X910371Y379418D01*
X910306Y379483D01*
X910238Y379545D01*
X910168Y379604D01*
X910096Y379660D01*
X910021Y379713D01*
X909944Y379762D01*
X909865Y379809D01*
X909784Y379852D01*
X909701Y379891D01*
X909617Y379927D01*
X909531Y379960D01*
X909444Y379988D01*
X909356Y380013D01*
X909267Y380035D01*
X909177Y380052D01*
X909086Y380066D01*
X908995Y380075D01*
X908904Y380081D01*
X908812Y380083D01*
X910971Y377924D02*
X910969Y377821D01*
X910963Y377719D01*
X910954Y377617D01*
X910941Y377515D01*
X910924Y377414D01*
X910903Y377313D01*
X910879Y377214D01*
X910850Y377115D01*
X910819Y377018D01*
X910783Y376921D01*
X910745Y376826D01*
X910702Y376733D01*
X910656Y376641D01*
X910607Y376551D01*
X910555Y376463D01*
X910499Y376376D01*
X910440Y376292D01*
X910379Y376211D01*
X910314Y376131D01*
X910246Y376054D01*
X910175Y375979D01*
X910102Y375908D01*
X910026Y375839D01*
X909948Y375772D01*
X909867Y375709D01*
X909784Y375649D01*
X909699Y375592D01*
X909612Y375538D01*
X909522Y375487D01*
X909431Y375440D01*
X909339Y375396D01*
X909244Y375355D01*
X909149Y375318D01*
X909052Y375285D01*
X907133Y379363D02*
X907199Y379430D01*
X907268Y379494D01*
X907339Y379555D01*
X907413Y379613D01*
X907489Y379668D01*
X907567Y379720D01*
X907647Y379769D01*
X907729Y379815D01*
X907813Y379857D01*
X907899Y379896D01*
X907986Y379931D01*
X908074Y379962D01*
X908164Y379990D01*
X908254Y380015D01*
X908346Y380036D01*
X908438Y380053D01*
X908531Y380066D01*
X908624Y380075D01*
X908718Y380081D01*
X908812Y380083D01*
X907133Y379363D02*
X902335Y375285D01*
X902335Y380083D01*
D12*
X876300Y368300D03*
M02*
