G04 EAGLE Gerber RS-274X export*
G75*
%MOMM*%
%FSLAX34Y34*%
%LPD*%
%INBottom Copper*%
%IPPOS*%
%AMOC8*
5,1,8,0,0,1.08239X$1,22.5*%
G01*
%ADD10C,1.524000*%
%ADD11C,1.320800*%
%ADD12P,1.429621X8X292.500000*%
%ADD13P,1.429621X8X112.500000*%
%ADD14P,1.429621X8X202.500000*%
%ADD15C,1.408000*%
%ADD16C,1.308000*%
%ADD17C,1.981200*%
%ADD18C,0.508000*%


D10*
X292100Y284480D02*
X292100Y299720D01*
X317500Y299720D02*
X317500Y284480D01*
X342900Y284480D02*
X342900Y299720D01*
X368300Y299720D02*
X368300Y284480D01*
X393700Y284480D02*
X393700Y299720D01*
X419100Y299720D02*
X419100Y284480D01*
D11*
X469900Y653796D02*
X469900Y667004D01*
X469900Y565404D02*
X469900Y552196D01*
X469900Y374904D02*
X469900Y361696D01*
X469900Y273304D02*
X469900Y260096D01*
D12*
X533400Y647700D03*
X533400Y622300D03*
X533400Y355600D03*
X533400Y330200D03*
D13*
X469900Y508000D03*
X450850Y495300D03*
X469900Y482600D03*
X469900Y215900D03*
X450850Y203200D03*
X469900Y190500D03*
X533400Y177800D03*
X533400Y279400D03*
X533400Y469900D03*
X533400Y571500D03*
D14*
X406400Y444500D03*
X304800Y444500D03*
X406400Y393700D03*
X304800Y393700D03*
D12*
X330200Y596900D03*
X330200Y495300D03*
X393700Y596900D03*
X393700Y495300D03*
D15*
X739200Y632700D03*
X619200Y512700D03*
X599200Y572700D03*
X739200Y512700D03*
X619200Y632700D03*
X739200Y340600D03*
X619200Y220600D03*
X599200Y280600D03*
X739200Y220600D03*
X619200Y340600D03*
D10*
X401320Y660400D02*
X386080Y660400D01*
X386080Y635000D02*
X401320Y635000D01*
X337820Y635000D02*
X322580Y635000D01*
X322580Y660400D02*
X337820Y660400D01*
D16*
X247840Y203200D02*
X234760Y203200D01*
X234760Y228600D02*
X247840Y228600D01*
X247840Y254000D02*
X234760Y254000D01*
X234760Y279400D02*
X247840Y279400D01*
X247840Y304800D02*
X234760Y304800D01*
X234760Y330200D02*
X247840Y330200D01*
X247840Y355600D02*
X234760Y355600D01*
X234760Y381000D02*
X247840Y381000D01*
X247840Y406400D02*
X234760Y406400D01*
X234760Y431800D02*
X247840Y431800D01*
X247840Y457200D02*
X234760Y457200D01*
X234760Y482600D02*
X247840Y482600D01*
X247840Y508000D02*
X234760Y508000D01*
X234760Y533400D02*
X247840Y533400D01*
X247840Y558800D02*
X234760Y558800D01*
X234760Y584200D02*
X247840Y584200D01*
X247840Y609600D02*
X234760Y609600D01*
X234760Y635000D02*
X247840Y635000D01*
X247840Y660400D02*
X234760Y660400D01*
X234760Y685800D02*
X247840Y685800D01*
X95440Y203200D02*
X82360Y203200D01*
X82360Y228600D02*
X95440Y228600D01*
X95440Y254000D02*
X82360Y254000D01*
X82360Y279400D02*
X95440Y279400D01*
X95440Y304800D02*
X82360Y304800D01*
X82360Y330200D02*
X95440Y330200D01*
X95440Y355600D02*
X82360Y355600D01*
X82360Y381000D02*
X95440Y381000D01*
X95440Y406400D02*
X82360Y406400D01*
X82360Y431800D02*
X95440Y431800D01*
X95440Y457200D02*
X82360Y457200D01*
X82360Y482600D02*
X95440Y482600D01*
X95440Y508000D02*
X82360Y508000D01*
X82360Y533400D02*
X95440Y533400D01*
X95440Y558800D02*
X82360Y558800D01*
X82360Y584200D02*
X95440Y584200D01*
X95440Y609600D02*
X82360Y609600D01*
X82360Y635000D02*
X95440Y635000D01*
X95440Y660400D02*
X82360Y660400D01*
X82360Y685800D02*
X95440Y685800D01*
D10*
X393700Y223520D02*
X393700Y208280D01*
X368300Y208280D02*
X368300Y223520D01*
X342900Y223520D02*
X342900Y208280D01*
D17*
X840994Y596646D02*
X860806Y596646D01*
X860806Y546354D02*
X840994Y546354D01*
X840994Y304546D02*
X860806Y304546D01*
X860806Y254254D02*
X840994Y254254D01*
X840994Y406654D02*
X860806Y406654D01*
X860806Y456946D02*
X840994Y456946D01*
D18*
X330200Y596900D02*
X279400Y546100D01*
X279400Y508000D01*
X254000Y482600D01*
X241300Y482600D01*
X292100Y482600D02*
X292100Y495300D01*
X292100Y482600D02*
X266700Y457200D01*
X241300Y457200D01*
X292100Y495300D02*
X393700Y596900D01*
D10*
X741680Y223520D02*
X739200Y220600D01*
X820166Y223520D02*
X850900Y254254D01*
X820166Y223520D02*
X741680Y223520D01*
X739200Y340600D02*
X814846Y340600D01*
X850900Y304546D01*
X629920Y284480D02*
X599440Y284480D01*
X599200Y280600D01*
X629920Y284480D02*
X736600Y391160D01*
X736600Y393700D01*
X749554Y406654D01*
X850900Y406654D01*
X635000Y568960D02*
X599440Y568960D01*
X599200Y572700D01*
X850646Y457200D02*
X850900Y456946D01*
X746760Y457200D02*
X635000Y568960D01*
X746760Y457200D02*
X850646Y457200D01*
X817880Y513080D02*
X747696Y513080D01*
X739999Y511901D01*
X739200Y512700D01*
X817880Y513080D02*
X850900Y546100D01*
X850900Y546354D01*
X741500Y635000D02*
X739200Y632700D01*
X741500Y635000D02*
X812800Y635000D01*
X850900Y596900D01*
X850900Y596646D01*
D18*
X391160Y497840D02*
X330200Y497840D01*
X330200Y495300D01*
X391160Y497840D02*
X393700Y495300D01*
X462280Y482600D02*
X469900Y482600D01*
X462280Y482600D02*
X457200Y477520D01*
X411480Y477520D01*
X393700Y495300D01*
X91440Y228600D02*
X91440Y203200D01*
X91440Y228600D02*
X88900Y228600D01*
X421640Y187960D02*
X467360Y187960D01*
X469900Y190500D01*
X142240Y203200D02*
X91440Y203200D01*
X142240Y203200D02*
X162560Y182880D01*
X365760Y182880D01*
X91440Y203200D02*
X88900Y203200D01*
X365760Y182880D02*
X393700Y210820D01*
X393700Y215900D01*
X421640Y187960D01*
X393700Y215900D02*
X393700Y292100D01*
X393700Y342900D01*
X469900Y419100D02*
X469900Y482600D01*
X469900Y419100D02*
X393700Y342900D01*
M02*
