G04 EAGLE Gerber RS-274X export*
G75*
%MOMM*%
%FSLAX34Y34*%
%LPD*%
%INSoldermask Bottom*%
%IPPOS*%
%AMOC8*
5,1,8,0,0,1.08239X$1,22.5*%
G01*
%ADD10C,1.727200*%
%ADD11C,1.524000*%
%ADD12P,1.649562X8X292.500000*%
%ADD13P,1.649562X8X112.500000*%
%ADD14P,1.649562X8X202.500000*%
%ADD15C,1.611200*%
%ADD16C,1.511200*%
%ADD17C,2.184400*%


D10*
X292100Y284480D02*
X292100Y299720D01*
X317500Y299720D02*
X317500Y284480D01*
X342900Y284480D02*
X342900Y299720D01*
X368300Y299720D02*
X368300Y284480D01*
X393700Y284480D02*
X393700Y299720D01*
X419100Y299720D02*
X419100Y284480D01*
D11*
X469900Y653796D02*
X469900Y667004D01*
X469900Y565404D02*
X469900Y552196D01*
X469900Y374904D02*
X469900Y361696D01*
X469900Y273304D02*
X469900Y260096D01*
D12*
X533400Y647700D03*
X533400Y622300D03*
X533400Y355600D03*
X533400Y330200D03*
D13*
X469900Y508000D03*
X450850Y495300D03*
X469900Y482600D03*
X469900Y215900D03*
X450850Y203200D03*
X469900Y190500D03*
X533400Y177800D03*
X533400Y279400D03*
X533400Y469900D03*
X533400Y571500D03*
D14*
X406400Y444500D03*
X304800Y444500D03*
X406400Y393700D03*
X304800Y393700D03*
D12*
X330200Y596900D03*
X330200Y495300D03*
X393700Y596900D03*
X393700Y495300D03*
D15*
X739200Y632700D03*
X619200Y512700D03*
X599200Y572700D03*
X739200Y512700D03*
X619200Y632700D03*
X739200Y340600D03*
X619200Y220600D03*
X599200Y280600D03*
X739200Y220600D03*
X619200Y340600D03*
D10*
X401320Y660400D02*
X386080Y660400D01*
X386080Y635000D02*
X401320Y635000D01*
X337820Y635000D02*
X322580Y635000D01*
X322580Y660400D02*
X337820Y660400D01*
D16*
X247840Y203200D02*
X234760Y203200D01*
X234760Y228600D02*
X247840Y228600D01*
X247840Y254000D02*
X234760Y254000D01*
X234760Y279400D02*
X247840Y279400D01*
X247840Y304800D02*
X234760Y304800D01*
X234760Y330200D02*
X247840Y330200D01*
X247840Y355600D02*
X234760Y355600D01*
X234760Y381000D02*
X247840Y381000D01*
X247840Y406400D02*
X234760Y406400D01*
X234760Y431800D02*
X247840Y431800D01*
X247840Y457200D02*
X234760Y457200D01*
X234760Y482600D02*
X247840Y482600D01*
X247840Y508000D02*
X234760Y508000D01*
X234760Y533400D02*
X247840Y533400D01*
X247840Y558800D02*
X234760Y558800D01*
X234760Y584200D02*
X247840Y584200D01*
X247840Y609600D02*
X234760Y609600D01*
X234760Y635000D02*
X247840Y635000D01*
X247840Y660400D02*
X234760Y660400D01*
X234760Y685800D02*
X247840Y685800D01*
X95440Y203200D02*
X82360Y203200D01*
X82360Y228600D02*
X95440Y228600D01*
X95440Y254000D02*
X82360Y254000D01*
X82360Y279400D02*
X95440Y279400D01*
X95440Y304800D02*
X82360Y304800D01*
X82360Y330200D02*
X95440Y330200D01*
X95440Y355600D02*
X82360Y355600D01*
X82360Y381000D02*
X95440Y381000D01*
X95440Y406400D02*
X82360Y406400D01*
X82360Y431800D02*
X95440Y431800D01*
X95440Y457200D02*
X82360Y457200D01*
X82360Y482600D02*
X95440Y482600D01*
X95440Y508000D02*
X82360Y508000D01*
X82360Y533400D02*
X95440Y533400D01*
X95440Y558800D02*
X82360Y558800D01*
X82360Y584200D02*
X95440Y584200D01*
X95440Y609600D02*
X82360Y609600D01*
X82360Y635000D02*
X95440Y635000D01*
X95440Y660400D02*
X82360Y660400D01*
X82360Y685800D02*
X95440Y685800D01*
D10*
X393700Y223520D02*
X393700Y208280D01*
X368300Y208280D02*
X368300Y223520D01*
X342900Y223520D02*
X342900Y208280D01*
D17*
X840994Y596646D02*
X860806Y596646D01*
X860806Y546354D02*
X840994Y546354D01*
X840994Y304546D02*
X860806Y304546D01*
X860806Y254254D02*
X840994Y254254D01*
X840994Y406654D02*
X860806Y406654D01*
X860806Y456946D02*
X840994Y456946D01*
M02*
