M48
;GenerationSoftware,Autodesk,EAGLE,9.6.2*%
;CreationDate,2023-11-16T11:31:26Z*%
FMAT,2
ICI,OFF
METRIC,TZ,000.000
T6C0.800
T5C0.813
T4C0.900
T3C1.016
T2C1.321
T1C1.778
%
G90
M71
T1
X12700Y58420
X27940Y58420
X27940Y17780
X12700Y17780
T2
X87630Y34315
X87630Y22885
X87630Y27915
X87630Y45745
X87630Y50775
X87630Y39345
T3
X45720Y22860
X36830Y55880
X36830Y53340
X41910Y53340
X41910Y55880
X43180Y22860
X40640Y22860
X38100Y22860
X35560Y22860
X33020Y22860
T4
X63730Y48140
X65730Y54140
X77730Y42140
X77730Y19280
X65730Y19280
X77730Y31280
X63730Y25280
X65730Y31280
X65730Y42140
X77730Y54140
T5
X36830Y49530
X41910Y39370
X41910Y49530
X48895Y40640
X50800Y55880
X50800Y45720
X50800Y34290
X50800Y24130
X57150Y55880
X57150Y53340
X57150Y34290
X57150Y31750
X50800Y41910
X34290Y35560
X50800Y39370
X50800Y20320
X48895Y19050
X50800Y17780
X57150Y17780
X57150Y27940
X57150Y39370
X57150Y49530
X44450Y35560
X44450Y30480
X34290Y30480
X36830Y39370
T6
X12700Y55880
X12700Y53340
X12700Y50800
X27940Y55880
X27940Y53340
X27940Y50800
X27940Y48260
X27940Y45720
X27940Y43180
X27940Y40640
X27940Y38100
X27940Y35560
X27940Y33020
X27940Y30480
X27940Y27940
X27940Y25400
X27940Y22860
X27940Y20320
X12700Y20320
X12700Y40640
X12700Y22860
X12700Y25400
X12700Y27940
X12700Y30480
X12700Y33020
X12700Y35560
X12700Y38100
X12700Y43180
X12700Y45720
X12700Y48260
M30